<?xml version="1.0" standalone="no"?>
<!DOCTYPE svg PUBLIC "-//W3C//DTD SVG 20010904//EN"
 "http://www.w3.org/TR/2001/REC-SVG-20010904/DTD/svg10.dtd">
<svg version="1.0" xmlns="http://www.w3.org/2000/svg"
 width="300.000000pt" height="300.000000pt" viewBox="0 0 300.000000 300.000000"
 preserveAspectRatio="xMidYMid meet">
<metadata>
Created by potrace 1.10, written by Peter Selinger 2001-2011
</metadata>
<g transform="translate(0.000000,300.000000) scale(0.050000,-0.050000)"
fill="#741b47" stroke="none">
<path d="M40 5960 c0 -22 -11 -40 -25 -40 -17 -1 -15 -7 5 -20 27 -18 27 -22
0 -40 -21 -14 -22 -19 -4 -20 19 0 20 -10 5 -39 -12 -21 -20 -122 -19 -225 l2
-186 55 220 c84 334 88 390 29 390 -35 0 -48 -11 -48 -40z"/>
<path d="M815 5957 c9 -36 4 -42 -30 -33 -22 6 -53 3 -68 -6 -20 -13 -20 -17
-2 -18 14 0 25 -16 25 -36 0 -20 -11 -47 -25 -61 -14 -14 -25 -33 -25 -43 0
-10 -18 -33 -40 -51 -22 -17 -29 -26 -15 -19 15 7 25 0 25 -19 0 -17 -10 -31
-21 -31 -12 0 -16 -9 -9 -20 7 -11 2 -20 -11 -20 -18 0 -18 -8 1 -30 28 -34
-4 -90 -51 -90 -18 0 -25 -21 -20 -67 3 -41 -12 -104 -38 -160 -25 -51 -40
-97 -34 -104 7 -6 0 -19 -15 -28 -33 -20 -9 -67 24 -48 13 7 17 6 9 -3 -8 -9
-2 -31 13 -48 39 -43 -47 -171 -277 -412 -94 -99 -170 -193 -169 -210 1 -21 4
-22 11 -5 6 14 19 20 29 14 11 -7 18 -5 16 5 -6 38 3 66 23 66 12 0 15 -11 6
-25 -12 -20 -8 -20 16 0 17 13 37 18 45 10 8 -7 8 2 1 21 -9 24 -3 34 20 34
18 0 28 9 22 19 -16 25 63 67 93 49 13 -8 17 -5 9 8 -17 27 72 125 121 133 88
14 146 -93 156 -292 4 -74 22 -162 39 -195 18 -34 26 -62 18 -62 -7 0 11 -21
40 -46 61 -52 67 -74 21 -74 -22 0 -29 -12 -23 -39 7 -25 2 -35 -15 -28 -13 5
-30 -9 -35 -32 -6 -22 -33 -49 -59 -59 -46 -17 -130 -103 -195 -199 -17 -24
-43 -43 -59 -43 -16 0 -23 -6 -16 -12 6 -7 -15 -35 -47 -62 -32 -27 -59 -64
-59 -81 0 -17 -5 -27 -11 -21 -6 6 -60 -38 -120 -99 l-109 -111 0 -582 c0
-546 3 -586 40 -647 22 -36 40 -79 40 -94 0 -16 20 -43 44 -60 25 -17 38 -31
30 -31 -9 0 -4 -20 10 -45 13 -25 22 -54 19 -65 -4 -11 -1 -14 7 -7 14 14 110
-75 110 -102 0 -9 58 -68 128 -132 l129 -115 10 -132 c6 -73 11 -171 11 -219
0 -55 8 -82 21 -74 12 8 21 0 21 -16 0 -16 28 -53 62 -81 33 -29 54 -52 45
-52 -10 0 9 -18 42 -39 32 -21 66 -34 75 -29 9 6 16 1 16 -11 0 -11 27 -21 60
-21 33 0 60 -10 60 -21 0 -12 8 -16 18 -10 23 14 144 -10 134 -27 -5 -6 20
-12 55 -12 44 0 61 -9 57 -28 -5 -24 -1 -24 25 -3 25 21 37 21 61 1 24 -20 30
-20 30 0 0 13 13 19 29 13 15 -6 39 2 52 18 13 16 49 29 80 29 31 0 82 10 113
23 31 12 77 21 102 20 26 -2 41 6 34 17 -11 18 31 30 76 22 9 -1 30 11 46 28
17 16 44 30 59 30 16 0 29 8 29 17 0 16 18 21 110 29 32 2 47 13 40 30 -5 14
-2 21 8 15 9 -6 40 8 68 30 31 24 56 32 64 19 19 -31 56 -24 43 8 -9 24 -2 24
39 3 57 -30 226 -24 289 9 23 13 65 18 92 11 40 -10 67 3 133 68 46 45 92 81
102 81 9 0 38 22 64 50 25 27 56 50 68 50 12 0 18 8 12 17 -44 71 190 166 244
99 19 -23 59 -64 89 -92 30 -28 55 -63 55 -78 0 -16 8 -24 17 -18 9 6 28 -13
41 -41 13 -29 29 -47 36 -40 17 18 68 -28 55 -49 -6 -10 3 -18 20 -18 17 0 49
-16 71 -35 23 -19 48 -35 56 -35 27 -1 102 -77 91 -94 -6 -10 12 -12 39 -5 34
8 52 3 61 -21 8 -19 30 -30 56 -26 24 3 47 -5 52 -19 4 -14 -2 -25 -14 -25
-16 0 -17 -11 0 -42 13 -24 34 -37 52 -30 16 7 24 3 17 -8 -7 -11 0 -25 14
-31 30 -11 33 -105 4 -126 -40 -29 -81 -92 -48 -75 23 12 23 9 -2 -12 -17 -14
-28 -36 -24 -48 4 -11 -16 -31 -43 -44 -66 -30 -64 -52 4 -81 51 -22 52 -21
16 6 -21 17 -32 37 -25 44 8 8 14 7 14 -2 0 -9 12 -6 28 7 22 19 29 11 36 -37
6 -42 1 -61 -18 -61 -28 0 -16 -99 14 -120 8 -5 21 -30 29 -55 12 -38 28 -45
105 -45 91 0 91 0 58 45 -137 191 -156 397 -41 435 80 27 100 69 53 116 -37
37 -44 128 -15 190 21 47 10 57 -169 145 -402 198 -627 421 -772 764 -9 21
-290 -195 -441 -339 -137 -130 -192 -171 -222 -163 -22 6 -87 -13 -144 -43
-115 -58 -171 -54 -151 10 23 72 -42 66 -181 -18 -211 -127 -739 -323 -878
-326 -168 -4 -525 81 -582 138 -26 26 -31 74 -27 257 l5 224 -210 208 c-341
337 -437 548 -477 1046 -16 191 -14 247 7 280 15 22 32 82 39 131 12 95 124
219 198 220 18 0 39 19 46 42 21 65 341 387 550 554 105 83 195 158 201 167 5
8 56 49 112 91 56 42 150 115 209 163 59 48 110 77 114 65 4 -12 18 -22 31
-22 13 0 26 -25 28 -55 4 -54 3 -54 -28 -15 -30 38 -31 36 -20 -37 6 -43 27
-90 47 -104 24 -18 27 -28 10 -28 -15 -1 -20 -11 -12 -24 9 -15 22 -7 37 21
13 24 29 37 37 29 8 -7 14 -3 14 10 0 12 -8 23 -18 23 -10 0 -15 16 -12 35 4
19 8 39 8 44 7 36 55 -76 50 -116 -3 -29 2 -61 12 -72 9 -12 15 -45 13 -74 -3
-54 -28 -49 -79 13 -9 11 -11 -1 -3 -27 7 -26 28 -63 46 -83 96 -104 143 -172
133 -198 -9 -22 -5 -23 19 -3 17 14 26 34 20 43 -6 10 6 18 28 18 21 0 44 -13
50 -29 7 -18 1 -25 -15 -19 -15 6 -32 -3 -38 -20 -8 -21 -3 -26 18 -18 20 7
34 -3 41 -30 6 -23 24 -46 39 -52 36 -14 36 3 -2 41 -34 34 -39 67 -10 67 11
0 20 -10 20 -23 0 -13 6 -18 12 -11 7 6 -5 34 -27 62 -29 37 -37 73 -32 146 4
62 0 82 -10 57 -13 -30 -20 -33 -33 -11 -13 21 -20 17 -33 -17 -24 -65 -46
-52 -71 42 -80 291 -81 533 -4 463 39 -35 62 21 24 59 -8 8 -16 43 -17 79 -2
35 -7 77 -12 93 -4 16 17 40 47 55 49 25 52 33 34 81 -38 101 -103 146 -85 60
l9 -45 -32 42 c-22 29 -46 39 -81 33 -50 -10 -64 -34 -31 -54 21 -13 -18 -131
-42 -131 -9 0 -16 -10 -16 -21 0 -12 7 -17 16 -11 9 5 29 1 44 -8 17 -11 39
-9 54 4 34 28 33 6 -5 -73 -47 -100 -194 -156 -396 -154 -378 6 -807 458 -678
715 96 189 225 614 225 737 0 53 32 70 137 73 184 6 184 33 0 36 -189 2 -193
1 -182 -41z m83 -1457 c64 -99 125 -150 149 -126 7 7 13 1 13 -13 0 -14 13
-20 30 -14 26 10 27 5 8 -30 -19 -36 -18 -41 9 -31 47 18 57 -14 23 -79 -16
-31 -30 -68 -30 -82 0 -34 -6 -33 -130 33 -59 32 -119 62 -131 66 -13 4 -25
34 -28 67 -3 32 -12 91 -20 129 -11 60 12 180 35 180 4 0 36 -45 72 -100z"/>
<path d="M2451 5955 c32 -108 60 -145 114 -151 57 -7 78 28 24 40 -26 5 -25
16 8 81 l39 75 -100 0 c-93 0 -98 -3 -85 -45z"/>
<path d="M2927 5940 c-20 -33 -42 -60 -49 -60 -8 0 -19 -13 -25 -30 -19 -49
17 -35 110 42 106 88 115 108 50 108 -35 0 -62 -19 -86 -60z"/>
<path d="M5015 5895 c67 -121 125 -289 125 -365 0 -45 154 -151 185 -127 13
10 95 -46 95 -65 0 -12 14 -34 30 -51 17 -16 30 -47 30 -67 0 -55 38 -70 70
-27 18 25 20 41 5 50 -12 7 -16 39 -9 74 12 60 -70 163 -130 163 -12 0 -56 32
-99 70 -42 39 -91 70 -107 70 -35 0 -40 42 -8 74 15 15 11 29 -15 49 -68 50
-115 164 -89 213 22 42 19 44 -59 44 l-83 0 59 -105z"/>
<path d="M5510 5975 c-15 -8 -43 -58 -62 -110 -20 -52 -61 -135 -91 -185 l-55
-90 64 -34 c35 -19 87 -34 114 -34 45 1 46 2 10 16 -38 15 -38 17 8 31 36 12
41 19 20 33 -16 10 -19 18 -8 18 11 0 7 9 -10 20 -24 16 -20 19 18 20 42 0 46
7 37 66 -8 46 3 96 37 165 26 54 48 100 48 102 0 9 -107 -6 -130 -18z"/>
<path d="M1286 5874 c17 -44 -58 -79 -94 -44 -41 42 -77 38 -63 -8 7 -21 1
-41 -13 -47 -31 -11 -100 10 -97 31 2 27 -28 19 -48 -13 -16 -26 -9 -43 29
-79 64 -59 140 -82 140 -41 0 22 9 24 40 7 27 -15 40 -15 40 -1 0 12 9 21 19
21 11 0 14 -16 7 -35 -9 -27 0 -23 41 13 l53 49 38 -45 c27 -31 41 -36 48 -18
7 17 11 18 12 3 1 -13 19 -19 41 -13 39 10 39 11 -5 46 -31 26 -51 31 -69 16
-18 -15 -25 -14 -25 3 0 13 -16 22 -35 20 -65 -7 -105 1 -105 20 0 11 88 20
205 21 113 0 221 1 242 1 67 2 99 -41 61 -83 -18 -20 -33 -62 -33 -92 0 -62
-47 -107 -94 -90 -24 9 -26 5 -10 -17 12 -16 20 -54 19 -84 -1 -30 5 -55 14
-55 28 0 17 -55 -14 -67 -23 -9 -25 -23 -11 -62 13 -33 12 -54 -2 -63 -14 -9
-12 -19 6 -30 19 -12 20 -17 3 -18 -14 0 -20 -14 -13 -31 7 -17 17 -26 22 -20
16 15 64 -53 64 -92 1 -27 60 -72 70 -52 1 3 12 19 25 35 17 23 13 72 -14 198
-37 179 -33 220 36 353 76 145 242 269 360 269 17 0 26 4 21 10 -6 5 -90 15
-188 20 -97 6 -196 22 -218 37 -28 18 -108 25 -256 23 -118 -2 -215 4 -215 14
0 9 -10 16 -22 16 -12 0 -18 -12 -12 -26z"/>
<path d="M1637 5753 c-28 -21 -27 -27 14 -58 52 -39 81 -6 41 49 -18 25 -30
27 -55 9z"/>
<path d="M2723 5753 c-18 -21 -7 -35 52 -65 125 -63 185 -126 166 -175 -16
-42 -11 -43 146 -45 196 -3 243 -21 416 -152 73 -55 137 -98 142 -93 5 4 24
-6 42 -21 19 -15 39 -23 45 -17 5 6 -13 29 -41 51 -53 41 -69 75 -26 54 14 -7
4 4 -21 24 -167 130 -175 161 -30 104 128 -51 207 -41 202 25 -3 33 -18 70
-35 83 -27 21 -28 20 -4 -11 24 -30 23 -35 -5 -35 -17 0 -32 -11 -33 -25 0
-15 -11 -11 -27 10 -14 19 -33 35 -42 35 -9 0 -26 15 -39 32 -16 21 -56 34
-113 35 -48 1 -99 13 -113 26 -46 45 -16 46 205 9 66 -11 179 -30 250 -41 227
-38 344 -64 332 -75 -19 -20 -101 -19 -128 1 -17 13 -34 11 -49 -4 -17 -17
-17 -23 2 -23 14 0 40 -14 57 -31 24 -24 36 -25 59 -6 24 19 31 15 40 -19 7
-26 21 -38 34 -30 45 28 153 26 153 -2 0 -33 49 -76 67 -59 7 7 2 28 -12 45
-15 20 -7 18 20 -6 50 -42 173 -62 159 -25 -6 15 30 24 109 26 75 2 117 -6
118 -20 0 -13 9 -7 21 12 11 19 44 36 74 37 l54 1 -60 19 c-33 10 -107 20
-164 22 -57 3 -99 11 -95 18 5 8 29 10 54 5 44 -10 44 -9 6 22 -51 41 -119 42
-104 1 14 -35 -136 -45 -157 -10 -7 12 -23 15 -35 7 -14 -9 -17 -1 -9 21 11
27 6 32 -22 23 -20 -6 -89 3 -155 21 -205 55 -262 67 -379 77 -62 6 -123 17
-136 25 -12 7 -113 16 -223 19 -380 9 -634 45 -691 97 -41 37 -49 37 -77 3z
m1615 -273 c53 0 3 -26 -55 -28 -34 -1 -56 8 -56 24 0 18 14 23 41 16 23 -6
55 -12 70 -12z"/>
<path d="M2268 5736 c-8 -13 -4 -27 8 -31 34 -12 29 -45 -6 -45 -16 0 -30 11
-30 24 0 13 -18 4 -41 -20 -39 -42 -37 -98 2 -73 34 21 63 -99 52 -219 -6 -79
-20 -125 -41 -136 -18 -10 -32 -32 -32 -48 0 -17 -9 -25 -20 -18 -34 21 -22
-36 23 -110 l42 -70 -43 39 c-29 25 -40 29 -33 10 6 -16 4 -54 -4 -84 l-15
-54 -56 44 c-67 54 -104 182 -63 216 15 12 32 48 39 79 9 43 21 55 46 46 19
-7 27 -5 19 4 -8 9 1 28 20 42 20 15 25 27 11 27 -18 1 -16 20 6 73 17 39 26
82 21 95 -7 15 -10 14 -11 -4 -2 -29 -72 -126 -91 -124 -37 3 -47 -4 -68 -50
-13 -28 -23 -76 -23 -106 0 -88 -58 -260 -95 -280 -25 -15 -28 -26 -11 -46 12
-15 30 -58 40 -97 21 -80 246 -126 246 -50 0 135 267 446 491 573 124 69 119
60 77 141 -28 54 -35 58 -51 29 -11 -18 -41 -33 -68 -33 -33 0 -57 -16 -72
-49 l-22 -48 -49 58 c-27 33 -62 59 -78 59 -19 0 -28 23 -28 71 l0 71 49 -56
c47 -55 49 -55 105 -22 109 65 114 122 12 120 -31 0 -86 17 -122 38 -76 44
-116 48 -136 14z"/>
<path d="M4660 5710 c0 -16 14 -30 30 -30 17 0 30 -9 30 -20 0 -11 9 -20 20
-20 11 0 20 25 20 55 -1 38 -6 47 -18 28 -12 -19 -21 -21 -31 -5 -19 32 -51
27 -51 -8z"/>
<path d="M4793 5687 c-7 -8 -13 -32 -13 -54 0 -22 6 -34 13 -27 7 7 29 4 50
-7 43 -24 45 -18 14 50 -24 52 -40 61 -64 38z"/>
<path d="M2680 5610 c0 -27 103 -170 122 -170 12 0 18 7 14 15 -45 92 -64 121
-97 141 -22 13 -39 20 -39 14z"/>
<path d="M1020 5585 c0 -15 73 -51 155 -75 47 -13 56 2 27 47 -11 18 -22 20
-30 6 -8 -13 -31 -11 -67 8 -62 32 -85 36 -85 14z"/>
<path d="M5735 5560 c-41 -22 -79 -40 -85 -41 -190 -8 -167 -66 40 -99 166
-27 237 -13 280 53 38 58 37 61 -30 70 -27 4 -62 18 -76 32 -35 33 -41 32
-129 -15z"/>
<path d="M1550 5500 c-7 -11 -34 -16 -61 -11 -39 7 -49 0 -50 -35 -1 -32 -5
-36 -15 -14 -19 41 -126 48 -110 7 6 -16 24 -24 40 -18 15 6 23 2 16 -9 -7
-11 -3 -20 9 -20 11 0 21 -13 21 -30 0 -16 9 -30 19 -30 29 0 65 77 49 103
-10 16 7 19 57 9 65 -12 71 -9 61 27 -12 46 -18 50 -36 21z"/>
<path d="M1065 5473 c-25 -12 -45 -36 -45 -53 1 -24 4 -25 18 -3 12 19 38 23
85 15 56 -10 60 -9 21 8 -26 11 -41 29 -34 40 7 11 10 19 6 18 -3 -2 -26 -13
-51 -25z"/>
<path d="M3876 5447 c8 -41 4 -49 -18 -37 -15 9 -11 -2 10 -26 32 -37 72 -43
72 -12 0 6 -10 4 -22 -3 -13 -9 -19 7 -15 44 5 41 17 55 42 51 19 -3 35 4 35
15 0 12 -26 21 -57 21 -51 0 -56 -6 -47 -53z"/>
<path d="M1318 5382 c22 -14 18 -23 -17 -41 -36 -20 -51 -18 -83 11 -26 23
-38 26 -38 9 0 -14 -13 -20 -30 -14 -16 7 -30 3 -30 -8 0 -11 13 -25 30 -32
16 -6 25 -19 20 -28 -22 -35 73 -43 98 -8 15 20 36 29 50 20 17 -10 23 -3 18
22 -3 21 5 35 19 32 36 -7 31 29 -7 43 -46 17 -62 14 -30 -6z"/>
<path d="M2865 5365 c-34 -11 -32 -78 4 -92 15 -6 39 2 52 18 15 18 16 29 3
29 -12 0 -24 12 -28 27 -3 15 -17 23 -31 18z"/>
<path d="M5881 5331 c-25 -26 -39 -58 -32 -70 18 -28 131 -27 131 1 0 14 -19
18 -49 10 -70 -18 -80 18 -18 66 29 23 44 42 33 42 -10 0 -40 -22 -65 -49z"/>
<path d="M2989 5342 c6 -10 2 -22 -10 -26 -21 -7 16 -140 78 -276 18 -38 36
-79 41 -90 5 -11 -7 -7 -25 8 -55 45 -57 13 -3 -34 38 -34 50 -37 50 -14 0 42
53 37 100 -10 42 -42 55 -92 19 -69 -12 7 -10 -5 4 -28 14 -23 44 -44 66 -48
23 -3 38 -18 35 -33 -3 -14 5 -38 17 -53 15 -19 16 -38 0 -66 -11 -22 -21 -57
-21 -77 0 -45 -107 -166 -147 -166 -76 0 -97 -126 -61 -366 36 -244 20 -401
-70 -669 -38 -112 -26 -129 52 -75 57 40 126 154 126 207 0 24 9 43 20 43 26
0 26 281 0 349 -14 37 -13 51 5 51 17 1 16 7 -4 19 -36 22 -44 62 -44 205 0
146 11 165 77 122 51 -34 52 -34 29 8 -30 57 -29 97 4 130 26 26 72 105 111
190 11 24 43 59 71 77 37 24 51 51 51 96 -1 42 -6 54 -18 36 -13 -21 -19 -19
-30 8 -8 23 2 49 28 73 22 21 36 47 29 57 -6 11 10 19 36 19 61 0 73 13 60 61
-6 25 -27 39 -57 39 -31 0 -43 9 -36 27 7 20 -3 25 -37 19 -70 -14 -117 48
-65 86 36 27 19 40 -37 30 -10 -2 -30 7 -45 20 -33 27 -35 18 -8 -51 13 -36
12 -51 -4 -51 -12 0 -16 -7 -8 -15 9 -8 20 -10 25 -5 6 6 23 -19 38 -55 15
-36 41 -65 58 -65 17 0 31 -9 31 -20 0 -11 -11 -20 -24 -20 -19 0 -19 -5 0
-24 33 -33 30 -56 -6 -56 -16 0 -30 -17 -30 -39 0 -21 -9 -44 -20 -51 -11 -7
-20 4 -20 24 -1 30 -4 31 -20 6 -21 -33 -29 -10 -21 65 2 19 -4 35 -14 35 -9
0 -34 41 -54 91 -21 50 -52 99 -69 109 -18 11 -21 19 -8 19 18 1 19 16 4 59
-39 111 -93 86 -108 -48 -3 -22 -6 -49 -8 -60 -7 -46 -62 64 -64 129 -3 94
-22 150 -54 156 -15 4 -22 -2 -15 -13z"/>
<path d="M3715 5310 c5 -27 21 -50 35 -50 32 0 60 -67 32 -76 -11 -4 -15 -20
-9 -35 21 -55 40 -28 38 56 -1 87 -28 131 -55 89 -10 -15 -16 -7 -16 21 0 25
-8 45 -17 45 -10 0 -13 -22 -8 -50z"/>
<path d="M5120 5286 c0 -74 -113 -322 -202 -445 -71 -99 -69 -107 24 -78 148
45 318 -117 358 -342 90 -520 219 -933 321 -1029 45 -43 101 -119 124 -170 23
-51 63 -117 89 -149 25 -31 46 -73 46 -94 0 -21 10 -77 23 -124 18 -70 17
-106 -9 -194 -33 -114 -30 -141 17 -141 40 0 59 -93 31 -155 -19 -41 -19 -55
2 -68 39 -25 -18 -56 -104 -57 -71 0 -166 -135 -211 -296 -7 -26 -34 -55 -61
-65 -50 -19 -54 -102 -17 -329 3 -22 7 -50 8 -63 1 -16 23 -18 76 -6 72 17
301 -4 344 -31 14 -8 21 25 21 91 0 85 -5 100 -27 82 -15 -13 -33 -17 -40 -10
-7 8 -47 13 -88 12 -41 -1 -64 3 -51 8 16 6 11 22 -16 49 -38 38 -48 158 -14
158 9 0 16 15 16 32 0 23 12 29 41 22 40 -10 40 -9 10 38 -18 26 -23 48 -11
48 11 0 20 -11 21 -25 0 -15 11 -11 27 10 31 40 104 47 119 10 5 -14 11 -5 11
19 2 34 -8 43 -47 40 -68 -5 -74 35 -6 42 l55 7 0 598 c0 523 -4 596 -30 586
-19 -7 -30 1 -30 23 0 21 -11 30 -28 24 -18 -7 -26 1 -23 22 8 46 -26 108 -50
93 -11 -7 -18 -3 -14 7 3 10 -23 50 -58 88 -74 83 -110 146 -93 163 7 7 2 13
-10 13 -13 0 -18 14 -11 30 6 17 1 30 -12 30 -16 0 -17 11 -1 40 17 31 15 40
-7 40 -32 0 -55 68 -45 130 4 22 -7 67 -24 100 -16 33 -32 98 -34 144 -2 46
-14 97 -27 112 -12 15 -18 32 -13 37 5 5 0 41 -12 78 -11 38 -24 100 -29 139
-4 38 -21 80 -38 92 -17 12 -24 28 -16 36 8 8 -1 24 -21 35 -19 11 -30 28 -23
38 6 11 -3 19 -20 19 -17 0 -31 8 -31 18 0 41 98 11 109 -33 7 -25 25 -45 41
-45 17 0 28 -11 25 -25 -3 -14 6 -23 20 -20 14 3 23 -2 21 -10 -8 -27 59 -134
112 -180 29 -25 52 -66 52 -93 0 -27 11 -53 25 -59 18 -7 18 -10 -2 -11 -22
-2 -23 -8 -4 -30 16 -20 16 -33 2 -41 -12 -8 -21 -24 -21 -37 0 -14 8 -12 20
6 14 22 19 7 20 -55 0 -47 9 -85 20 -85 11 0 20 -16 20 -36 0 -45 38 -84 82
-84 18 0 45 -14 59 -31 14 -17 37 -26 51 -21 14 5 30 -1 35 -14 5 -13 9 48 9
136 -1 147 -3 154 -22 85 -24 -85 -44 -91 -111 -35 -40 34 -45 51 -33 120 14
84 49 128 52 66 1 -22 5 -26 11 -10 6 14 0 38 -13 54 -34 41 -11 147 61 285
80 154 80 225 -1 225 -79 0 -231 72 -278 133 -21 26 -73 61 -115 77 l-77 30
59 -45 c32 -25 90 -73 130 -107 39 -34 114 -81 166 -104 52 -23 95 -51 95 -62
0 -27 -57 -246 -67 -256 -13 -13 -168 202 -215 300 -33 66 -72 110 -131 145
-46 27 -119 90 -161 140 -42 51 -110 129 -151 175 l-75 84 0 -64z"/>
<path d="M5674 5285 c-77 -86 -69 -185 15 -185 123 0 156 28 116 98 -18 32
-44 53 -58 48 -13 -5 -27 10 -30 35 -7 44 -7 44 -43 4z"/>
<path d="M1141 5225 c0 -13 -32 -40 -70 -60 l-69 -35 49 -23 c27 -13 44 -15
38 -6 -6 10 12 24 40 31 55 13 57 18 31 78 -9 22 -18 29 -19 15z"/>
<path d="M4646 5126 c10 -87 53 -153 53 -82 1 29 -8 59 -19 66 -12 7 -16 21
-10 30 6 9 2 23 -10 30 -12 7 -18 -10 -14 -44z"/>
<path d="M3720 5151 c0 -4 31 -53 68 -108 70 -104 100 -179 120 -304 21 -122
604 -391 672 -309 40 48 60 35 60 -38 0 -58 12 -75 80 -115 43 -26 210 -171
370 -323 159 -153 290 -271 290 -264 0 8 -46 92 -103 187 -56 95 -103 184
-103 198 0 14 -15 25 -33 25 -39 0 -99 67 -107 120 -4 21 -14 46 -23 54 -9 9
-12 -11 -6 -44 l11 -59 -53 59 c-29 33 -67 61 -83 62 -180 12 -260 141 -163
265 60 78 109 161 59 101 -39 -47 -83 -55 -111 -20 -22 27 -24 24 -16 -24 7
-48 3 -54 -30 -44 -25 8 -39 3 -39 -14 -1 -19 -4 -20 -16 -2 -8 13 -33 20 -54
16 -22 -4 -44 -8 -48 -8 -5 -1 9 -22 30 -47 23 -27 26 -35 6 -20 -17 14 -39
18 -48 10 -8 -8 -10 10 -2 40 7 33 4 55 -8 55 -11 0 -20 13 -20 28 0 35 -54
57 -72 29 -7 -11 -2 -31 10 -43 30 -30 28 -54 -7 -54 -15 0 -34 18 -41 40 -7
22 -22 40 -33 40 -12 0 -16 14 -10 30 7 17 3 30 -8 30 -10 0 -19 14 -19 31 0
25 -8 26 -42 8 -28 -15 -38 -35 -31 -62 9 -37 6 -36 -35 6 -24 26 -42 53 -38
60 13 28 -19 74 -44 64 -19 -7 -24 2 -17 29 6 22 1 46 -11 53 -12 7 -22 2 -22
-11 0 -13 -40 15 -90 64 -49 48 -90 96 -90 106 0 9 -22 38 -50 64 -27 25 -50
43 -50 39z"/>
<path d="M3909 5062 c30 -57 91 -98 91 -61 0 11 -13 25 -28 31 -15 6 -33 28
-38 49 -6 22 -20 39 -33 39 -14 0 -12 -20 8 -58z"/>
<path d="M2746 5066 c-17 -6 -19 -23 -5 -59 11 -28 13 -60 6 -72 -7 -12 -4
-15 8 -8 49 30 42 157 -9 139z"/>
<path d="M4298 4987 c11 -5 15 -23 9 -39 -9 -21 -19 -23 -38 -7 -20 17 -24 12
-15 -20 6 -22 18 -36 27 -30 21 13 46 -28 55 -91 12 -91 40 -85 37 8 -2 51
-10 92 -19 92 -9 0 -11 9 -4 20 7 11 3 20 -9 20 -11 0 -19 10 -16 23 3 12 -6
25 -20 28 -15 3 -17 2 -7 -4z"/>
<path d="M4631 4884 c-6 -5 13 -22 42 -37 63 -33 60 -33 60 1 0 28 -82 57
-102 36z"/>
<path d="M1475 4843 c-7 -26 -22 -41 -34 -34 -30 19 -26 -7 7 -40 39 -38 70 4
53 71 l-13 50 -13 -47z"/>
<path d="M4215 4837 c5 -20 26 -37 47 -37 46 0 30 52 -21 65 -27 8 -34 1 -26
-28z"/>
<path d="M2311 4781 c-7 -11 -2 -21 11 -21 14 0 19 -6 12 -13 -7 -7 -27 -1
-44 13 -29 24 -95 -3 -69 -27 42 -39 137 -32 129 8 -11 56 -22 68 -39 40z"/>
<path d="M2040 4511 c30 -70 36 -118 27 -225 -14 -180 41 -284 61 -116 7 55
19 152 28 216 11 81 9 126 -7 148 -25 35 -62 3 -39 -34 7 -11 -2 -20 -20 -20
-20 0 -30 14 -27 35 7 40 -16 85 -43 85 -10 0 -1 -40 20 -89z"/>
<path d="M2305 4528 c-18 -59 -17 -69 6 -61 16 7 53 -19 88 -63 55 -66 57 -75
26 -87 -19 -8 -25 -15 -12 -16 14 0 19 -19 12 -44 -8 -30 -4 -39 12 -29 31 19
68 -82 55 -147 -9 -43 -8 -44 7 -11 24 53 47 117 49 133 1 8 9 20 17 29 22 22
18 52 -5 38 -13 -8 -13 5 -1 38 13 33 13 55 0 63 -11 6 -15 19 -10 28 6 9 -1
26 -14 37 -25 20 -36 24 -75 24 -11 0 -20 14 -20 30 0 34 -31 40 -50 10 -18
-29 -50 -5 -50 36 1 29 3 30 20 4 11 -16 20 -20 20 -7 1 67 -54 63 -75 -5z"/>
<path d="M2760 4303 c0 -64 -55 -300 -78 -333 -135 -195 -157 -578 -42 -750
55 -83 57 -92 26 -115 -44 -33 -100 -32 -120 2 -22 35 -82 56 -97 32 -6 -10 9
-19 35 -20 44 0 45 -1 8 -29 -21 -16 -46 -24 -55 -18 -9 6 -17 3 -17 -6 0 -18
-290 -15 -390 3 -169 31 -605 43 -880 24 -44 -3 -111 1 -149 10 -44 9 -80 6
-97 -8 -20 -16 -44 -16 -95 3 -69 25 -149 15 -149 -19 0 -30 71 -58 117 -46
30 8 43 3 43 -19 0 -16 12 -35 28 -40 20 -8 25 1 19 32 -5 25 4 15 21 -21 30
-65 71 -87 73 -40 1 14 11 5 23 -20 12 -25 30 -45 39 -45 30 0 18 51 -23 95
-22 24 -40 47 -40 51 0 4 176 8 391 9 338 2 388 -2 368 -26 -20 -24 -16 -29
19 -29 24 0 48 -11 53 -25 5 -14 32 -26 61 -28 36 -2 48 5 40 25 -12 32 19 38
39 7 7 -11 54 -19 106 -16 120 6 223 -19 223 -53 0 -70 93 -52 121 23 10 26
35 47 55 47 20 0 54 13 75 29 104 79 91 -7 -14 -97 -76 -65 -81 -75 -61 -126
12 -31 28 -100 36 -154 l13 -98 37 48 c21 28 37 36 38 21 0 -15 12 -23 27 -17
15 6 56 -7 91 -28 61 -37 120 -55 63 -19 -21 13 -7 21 50 31 44 6 95 15 114
19 44 9 95 -39 95 -90 0 -33 -6 -35 -50 -15 -27 12 -50 30 -50 40 0 40 -78
-28 -98 -87 -31 -89 51 -199 84 -112 12 33 20 37 32 18 13 -21 19 -20 29 5 8
22 0 32 -23 32 -19 0 -47 10 -64 22 -23 16 -12 19 43 11 40 -5 82 0 93 11 24
24 56 -104 38 -151 -6 -16 0 -40 13 -53 18 -20 17 -23 -2 -12 -30 17 -33 -31
-6 -123 14 -52 12 -65 -10 -65 -16 0 -29 9 -29 20 0 37 -39 20 -64 -29 -38
-72 -107 -22 -77 57 11 28 13 52 5 52 -18 0 -17 83 2 114 8 12 -2 28 -21 35
-19 7 -37 4 -41 -8 -4 -11 -28 -16 -54 -9 -42 10 -46 6 -35 -35 10 -41 8 -44
-20 -21 -24 20 -35 20 -46 2 -9 -14 -7 -19 5 -12 11 7 40 -23 64 -67 25 -43
53 -79 63 -79 11 0 19 -8 19 -17 0 -10 -25 -15 -55 -12 -30 4 -61 -4 -69 -17
-15 -24 -25 25 -17 84 2 16 -8 23 -23 17 -20 -8 -27 8 -25 56 1 37 -6 65 -16
63 -38 -8 -96 100 -108 201 -10 85 -47 154 -47 87 0 -9 -18 -22 -40 -28 -61
-16 -49 -46 65 -169 99 -105 99 -128 0 -39 -25 23 -45 31 -45 19 0 -29 116
-125 152 -125 15 0 28 -10 28 -21 0 -31 -81 -3 -135 47 -25 22 -49 37 -54 32
-13 -13 12 -44 79 -96 l60 -47 -70 15 c-62 14 -66 12 -43 -16 14 -18 66 -38
115 -45 75 -12 85 -18 65 -43 -17 -20 -46 -26 -91 -18 -36 7 -96 17 -134 24
-40 7 -73 3 -81 -10 -36 -59 -70 -20 -63 73 4 52 -3 107 -15 122 -37 47 6 338
47 313 10 -6 28 7 40 29 12 23 16 41 8 41 -7 0 5 16 27 35 29 26 36 50 27 94
l-12 58 -54 -82 c-38 -57 -47 -85 -30 -92 14 -6 11 -10 -9 -11 -18 -1 -38 -18
-45 -37 -7 -19 -27 -61 -45 -93 -37 -66 -40 -271 -5 -336 16 -30 16 -37 0 -27
-16 9 -16 -2 -1 -41 25 -67 1 -88 -101 -87 -109 0 -137 33 -128 152 6 78 1
106 -22 114 -22 9 -25 23 -11 57 10 25 24 80 31 121 6 41 21 75 32 75 11 0 15
8 9 19 -6 10 -3 24 8 30 10 7 15 24 9 38 -5 14 16 38 46 54 63 33 85 57 86 95
0 20 -9 20 -45 2 -66 -35 -219 -195 -206 -216 6 -10 -3 -29 -19 -42 -17 -14
-30 -38 -30 -55 0 -25 -5 -26 -32 -4 -26 22 -34 22 -49 -2 -34 -53 -22 -135
21 -149 22 -7 35 -22 28 -34 -8 -13 -19 -11 -29 6 -23 36 -43 12 -27 -30 7
-19 25 -30 39 -24 38 14 52 -42 18 -76 -35 -35 -37 -65 -6 -84 16 -10 20 -4
11 19 -7 18 -4 33 7 33 10 0 19 -13 19 -29 0 -16 11 -35 23 -43 16 -10 20 -4
11 20 -8 19 -5 29 5 23 10 -6 22 7 27 29 8 35 9 34 7 -5 -1 -25 4 -54 11 -65
7 -11 0 -38 -16 -59 -24 -34 -28 -34 -28 -5 0 19 -9 34 -20 34 -30 0 -24 -32
12 -61 18 -16 37 -19 45 -8 20 29 98 34 114 8 9 -15 18 -16 27 -3 27 44 112
36 118 -11 12 -80 524 -42 524 39 0 23 11 36 25 31 14 -5 25 -28 26 -52 1
-100 47 -125 131 -72 45 28 81 40 88 29 7 -11 78 -20 157 -20 l146 0 34 72
c44 93 32 106 -30 32 -53 -62 -89 -62 -142 3 -43 54 -44 73 -2 73 40 0 24 287
-25 424 -70 200 -308 396 -308 254 0 -53 -23 -58 -81 -17 -30 21 -69 39 -86
39 -38 0 -73 60 -73 123 0 46 0 46 51 -8 52 -56 265 -79 234 -26 -57 100 -92
134 -108 105 -18 -33 -81 -26 -142 16 -44 30 74 176 193 240 86 46 91 65 20
74 l-53 6 -4 360 c-3 198 -1 367 3 375 4 8 12 83 16 167 5 84 14 168 20 188 6
20 2 42 -9 49 -13 8 -21 -10 -21 -46z m-290 -2404 l80 -37 -93 3 c-78 2 -93 9
-91 39 3 43 3 43 104 -5z"/>
<path d="M1890 4267 c18 -35 21 -67 9 -99 -17 -45 2 -81 28 -54 31 31 12 165
-26 185 -36 20 -37 18 -11 -32z"/>
<path d="M3361 4245 c1 -25 47 -75 74 -80 37 -7 30 37 -10 67 -39 30 -65 35
-64 13z"/>
<path d="M2923 4085 c-29 -207 -50 -498 -34 -483 21 22 35 103 44 268 5 88 16
203 25 255 9 53 10 100 2 105 -8 5 -25 -60 -37 -145z"/>
<path d="M1411 4202 c-6 -10 11 -71 39 -133 27 -63 50 -127 50 -144 0 -18 12
-25 31 -17 17 6 26 4 21 -5 -18 -30 49 -103 88 -97 55 9 71 31 34 45 -17 7
-37 39 -45 72 -7 32 -29 69 -49 82 -20 12 -32 32 -27 45 20 52 -114 197 -142
152z"/>
<path d="M3416 4109 c-6 -6 -2 -46 9 -89 19 -78 20 -78 65 -44 44 32 45 36 14
89 -31 52 -64 69 -88 44z"/>
<path d="M4060 4105 c-41 -16 -87 -65 -73 -78 6 -7 26 3 44 21 18 18 40 27 51
21 10 -6 18 3 18 20 0 17 -2 30 -5 29 -3 0 -18 -6 -35 -13z"/>
<path d="M4672 4037 c6 -10 -9 -44 -32 -77 -47 -66 -34 -79 24 -26 30 27 35
28 26 4 -6 -18 7 -47 33 -69 24 -22 38 -28 30 -15 -8 13 3 28 27 36 41 13 54
59 22 79 -9 6 -22 -8 -28 -31 -13 -48 -51 -35 -52 17 -3 78 -10 98 -34 98 -15
0 -22 -7 -16 -16z"/>
<path d="M1195 3955 c6 -25 31 -72 55 -105 33 -45 39 -68 24 -92 -15 -24 -9
-43 25 -77 55 -55 101 -16 49 42 -17 18 -28 45 -25 60 3 15 -10 56 -29 91 -19
35 -34 78 -34 95 0 17 -17 31 -38 31 -30 0 -36 -10 -27 -45z"/>
<path d="M1155 3705 c-40 -9 -43 -22 -15 -65 16 -24 19 -25 20 -2 0 22 9 20
40 -8 39 -35 40 -35 40 4 0 50 -38 82 -85 71z"/>
<path d="M2086 3645 c9 -55 49 -116 66 -100 9 9 5 26 -8 39 -13 13 -24 40 -24
60 0 20 -9 36 -20 36 -11 0 -17 -16 -14 -35z"/>
<path d="M2271 3622 c9 -32 6 -43 -9 -33 -12 7 -22 3 -22 -9 0 -35 39 -100 60
-100 21 0 4 114 -24 160 -12 21 -14 15 -5 -18z"/>
<path d="M5086 3601 c-67 -54 -99 -128 -49 -112 22 7 45 4 51 -6 16 -26 119
-23 137 4 52 81 -63 175 -139 114z"/>
<path d="M1026 3500 c-3 -33 3 -60 12 -60 21 0 62 93 47 108 -29 29 -55 7 -59
-48z"/>
<path d="M760 3365 c0 -30 47 -85 72 -85 52 0 26 86 -27 90 -25 2 -45 0 -45
-5z"/>
<path d="M625 3336 c10 -31 111 -58 126 -34 20 32 -12 58 -74 58 -38 0 -57 -9
-52 -24z"/>
<path d="M5325 3225 c-46 -15 -26 -45 31 -45 31 0 66 -10 78 -22 12 -12 26
-14 32 -5 13 22 -108 83 -141 72z"/>
<path d="M2961 3143 c-48 -90 36 -203 151 -203 43 0 138 -101 132 -140 -2 -16
27 -137 66 -268 73 -250 83 -337 50 -451 -14 -50 -13 -73 4 -83 17 -11 15 -37
-10 -100 -38 -97 -34 -110 23 -80 90 49 155 17 93 -45 -42 -42 -38 -52 28 -75
36 -13 63 -39 70 -69 7 -27 35 -63 62 -81 28 -18 50 -43 50 -56 0 -13 36 -63
80 -112 44 -49 80 -98 80 -109 0 -12 7 -11 16 3 18 28 49 11 78 -42 20 -37 22
-37 44 5 16 30 17 43 2 43 -25 0 -126 68 -207 140 -95 84 -155 245 -166 450
-18 327 -55 480 -175 720 -124 248 -166 409 -95 372 58 -31 63 -28 61 33 0 30
-6 44 -11 30 -7 -16 -22 -19 -44 -8 -18 9 -77 19 -132 21 -103 6 -176 45 -207
112 -17 38 -18 38 -43 -7z"/>
<path d="M165 3078 c6 -47 99 -158 133 -158 37 0 24 40 -13 41 -25 0 -19 9 21
31 58 32 56 68 -5 68 -20 0 -47 14 -61 30 -37 44 -80 37 -75 -12z"/>
<path d="M417 3115 c-32 -63 73 -214 149 -215 17 -1 16 -6 -3 -18 -20 -12 -10
-28 40 -63 37 -26 74 -59 83 -73 9 -14 30 -26 46 -26 17 0 25 -9 18 -20 -7
-12 -23 -15 -36 -9 -13 7 3 -13 36 -43 50 -46 61 -49 66 -21 8 36 104 48 104
12 0 -12 -10 -15 -22 -8 -15 10 -15 1 1 -29 23 -43 61 -57 61 -22 0 11 18 20
40 20 24 0 40 13 40 32 0 27 -5 28 -30 8 -25 -21 -39 -16 -80 28 -55 60 -70
65 -89 33 -8 -13 -25 0 -42 33 -35 66 -92 127 -106 113 -21 -22 -96 17 -85 45
6 16 -2 28 -19 28 -16 0 -29 9 -29 20 0 11 9 20 20 20 45 0 15 37 -55 67 -64
28 -67 31 -20 26 67 -9 76 37 10 54 -47 13 -93 17 -98 8z"/>
<path d="M4007 3084 c14 -22 -10 -26 -210 -31 -80 -2 -108 -10 -95 -25 9 -12
12 -28 4 -35 -7 -7 -2 -13 10 -13 13 0 37 -27 54 -59 20 -40 41 -56 61 -48 26
10 26 15 2 34 -16 13 -35 43 -42 68 -16 53 -48 51 389 23 517 -32 720 -38 720
-20 0 24 -123 47 -280 54 -71 3 -130 6 -130 8 0 13 -175 8 -183 -5 -6 -9 -21
-8 -35 3 -13 11 -69 24 -125 28 -55 4 -113 15 -127 24 -17 10 -21 8 -13 -6z"/>
<path d="M620 3025 c1 -36 37 -67 88 -76 35 -7 51 -3 42 10 -7 12 3 21 22 21
49 0 16 27 -37 31 -25 2 -52 -7 -60 -19 -9 -14 -15 -9 -15 13 0 19 -9 35 -20
35 -11 0 -20 -7 -20 -15z"/>
<path d="M3492 3026 c-8 -9 -25 -16 -37 -16 -12 0 -25 -13 -30 -30 -6 -23 -4
-24 10 -5 14 20 26 17 54 -14 28 -31 45 -35 74 -20 34 19 45 12 39 -26 -1 -8
5 -16 13 -17 8 -1 36 -4 61 -6 55 -6 78 23 43 55 -19 18 -22 16 -10 -7 8 -18
3 -16 -15 5 -39 48 -59 44 -43 -10 l13 -45 -33 45 c-18 25 -46 45 -61 45 -15
0 -36 14 -45 31 -10 16 -24 23 -33 15z"/>
<path d="M5252 3023 c-20 -32 58 -53 166 -45 43 3 9 28 -43 32 -25 2 -60 10
-78 18 -18 8 -39 6 -45 -5z"/>
<path d="M4933 3007 c-22 -22 -15 -49 12 -46 60 8 95 -3 95 -31 0 -16 17 -30
38 -30 25 0 36 -12 33 -35 -3 -19 -1 -24 3 -10 5 14 17 25 26 25 9 0 21 -11
27 -25 19 -48 14 21 -6 72 -23 61 -188 119 -228 80z"/>
<path d="M5540 2958 c0 -10 -14 -18 -31 -18 -17 0 -27 -8 -21 -17 6 -10 31
-15 57 -13 25 3 57 6 71 7 15 2 21 11 15 21 -15 25 -91 42 -91 20z"/>
<path d="M1111 2901 c-23 -37 9 -61 80 -61 53 0 65 7 56 31 -7 18 -25 26 -42
20 -17 -7 -42 -2 -56 10 -18 14 -29 15 -38 0z"/>
<path d="M5210 2900 c7 -11 39 -20 72 -20 35 0 55 8 48 20 -7 11 -39 20 -72
20 -35 0 -55 -8 -48 -20z"/>
<path d="M1480 2860 c23 -43 51 -51 69 -21 7 11 28 15 47 9 19 -6 12 3 -16 20
-76 46 -127 42 -100 -8z"/>
<path d="M3964 2837 c5 -13 26 -26 47 -28 22 -3 71 -11 109 -19 52 -10 62 -8
40 8 -16 12 -50 22 -74 22 -24 0 -49 9 -56 20 -17 28 -75 25 -66 -3z"/>
<path d="M1641 2803 c-1 -18 -16 -24 -41 -17 -26 7 -40 0 -40 -18 0 -16 20
-28 45 -28 25 0 58 -9 74 -19 37 -24 62 -8 48 30 -6 16 -19 24 -28 18 -9 -5
-26 6 -37 26 -14 23 -21 26 -21 8z"/>
<path d="M320 2764 c0 -8 14 -35 31 -60 17 -24 23 -44 14 -44 -10 0 -17 -44
-17 -99 1 -79 7 -94 28 -76 21 18 24 12 13 -32 -9 -36 -5 -53 11 -53 13 0 20
12 14 26 -5 14 12 35 38 48 37 17 48 17 48 -3 0 -24 98 -80 113 -65 20 20 -21
72 -64 83 -27 6 -49 23 -49 36 -1 19 -5 18 -17 -1 -24 -37 -114 7 -118 57 -3
47 8 49 48 9 49 -49 78 -34 30 16 -24 26 -39 52 -33 58 6 6 -3 22 -20 36 -16
14 -30 37 -30 52 0 16 -9 28 -20 28 -11 0 -20 -7 -20 -16z"/>
<path d="M1367 2712 c31 -47 60 -49 69 -6 4 18 -15 33 -46 39 -48 9 -50 7 -23
-33z"/>
<path d="M4123 2690 c3 -22 -1 -51 -10 -65 -10 -17 -5 -21 17 -12 19 7 43 -3
60 -25 22 -30 29 -31 30 -8 0 21 5 23 16 6 10 -16 25 -18 45 -6 32 21 -50 96
-90 83 -11 -3 -32 11 -47 31 -26 34 -27 34 -21 -4z"/>
<path d="M1292 2648 c-20 -53 -14 -63 37 -63 42 0 47 6 30 36 -28 53 -53 63
-67 27z"/>
<path d="M4485 2615 c4 -14 61 -52 126 -84 66 -33 122 -67 126 -75 3 -9 21
-15 40 -14 19 0 23 5 9 11 -13 5 -19 21 -14 35 11 28 -78 132 -112 132 -12 0
-17 -9 -10 -19 6 -11 -26 -7 -72 10 -101 35 -103 35 -93 4z"/>
<path d="M1207 2572 c2 -29 15 -52 30 -52 22 0 23 -6 4 -28 -19 -24 -16 -27
18 -18 22 6 41 19 41 28 0 10 13 18 29 18 16 0 35 10 42 22 10 15 -5 18 -47 9
-48 -11 -66 -5 -90 29 -30 43 -30 43 -27 -8z"/>
<path d="M4940 2572 c0 -40 -7 -48 -34 -38 -31 12 -31 10 -6 -18 27 -28 32
-28 54 2 30 39 33 76 6 92 -11 7 -20 -10 -20 -38z"/>
<path d="M5270 2600 c-7 -11 4 -26 24 -33 20 -7 43 -17 51 -21 8 -5 15 10 15
33 0 43 -67 59 -90 21z"/>
<path d="M4260 2513 c0 -13 18 -40 40 -58 22 -19 40 -25 40 -12 0 13 17 10 45
-9 25 -17 43 -41 40 -52 -3 -12 4 -22 15 -22 29 0 25 17 -20 80 -44 62 -160
115 -160 73z"/>
<path d="M5353 2490 c6 -16 18 -26 26 -20 9 5 32 -9 52 -31 20 -22 48 -36 62
-30 15 5 36 -8 47 -30 22 -40 60 -53 60 -21 0 29 -68 104 -100 109 -17 3 -50
16 -74 29 -59 32 -87 30 -73 -6z"/>
<path d="M5877 2392 c-33 -73 -21 -96 22 -43 13 16 21 48 18 72 -6 38 -12 33
-40 -29z"/>
<path d="M2630 2400 c7 -11 2 -20 -10 -20 -14 0 -17 -17 -9 -45 34 -108 34
-107 13 -78 -12 18 -24 20 -32 7 -23 -39 34 -51 61 -14 15 21 33 31 40 24 15
-16 65 45 66 81 1 14 -21 25 -49 25 -27 0 -50 9 -50 20 0 11 -10 20 -21 20
-12 0 -16 -9 -9 -20z"/>
<path d="M4769 2399 c-7 -12 8 -45 34 -72 26 -28 48 -76 50 -109 4 -110 7
-120 29 -107 14 9 18 43 10 92 -11 69 -8 77 30 77 36 0 39 5 18 30 -13 16 -32
25 -42 19 -24 -15 -101 29 -88 51 6 9 2 23 -8 29 -11 6 -25 2 -33 -10z"/>
<path d="M524 2341 c24 -20 56 -32 70 -27 14 6 26 0 26 -13 0 -13 9 -18 20
-11 49 30 -1 65 -116 81 l-46 7 46 -37z"/>
<path d="M5049 2300 c5 -33 0 -64 -9 -70 -10 -6 5 -34 33 -62 51 -50 91 -53
53 -3 -31 39 -44 114 -23 127 11 7 10 23 -4 40 -38 45 -58 33 -50 -32z"/>
<path d="M5300 2309 c0 -37 56 -61 82 -35 12 12 1 27 -31 42 -42 19 -51 18
-51 -7z"/>
<path d="M480 2306 c0 -24 70 -126 87 -126 10 0 7 -13 -7 -30 -28 -34 -11 -99
21 -80 11 8 15 30 9 50 -19 61 27 66 80 8 28 -30 56 -49 62 -42 7 6 -20 40
-60 75 -40 35 -72 75 -72 89 0 14 -16 33 -35 41 -48 21 -85 27 -85 15z"/>
<path d="M1664 2225 c3 -12 -12 -36 -34 -54 -32 -25 -33 -29 -5 -19 26 9 35 2
35 -31 0 -36 -6 -39 -39 -22 -43 24 -44 -44 0 -88 15 -15 18 -11 8 14 -9 24
-3 35 19 35 18 0 32 -9 32 -20 0 -38 32 -20 35 20 1 22 -5 40 -14 40 -21 0
-17 66 5 82 9 6 1 24 -16 38 -19 16 -30 18 -26 5z"/>
<path d="M927 2099 c8 -37 5 -56 -7 -49 -11 7 -15 -1 -9 -16 7 -18 -5 -33 -30
-40 -23 -6 -41 -18 -39 -27 1 -9 1 -21 -1 -27 -18 -47 -13 -80 13 -80 19 0 26
11 19 30 -7 17 -4 30 6 30 27 0 106 177 94 210 -22 58 -59 33 -46 -31z"/>
<path d="M4589 2102 c6 -10 2 -22 -9 -25 -12 -4 -8 -26 11 -52 17 -25 41 -40
52 -33 14 8 13 20 -1 34 -12 12 -22 38 -22 58 0 20 -10 36 -21 36 -12 0 -16
-8 -10 -18z"/>
<path d="M5271 2036 c-9 -21 -27 -29 -48 -21 -18 6 0 -21 41 -62 89 -88 101
-90 92 -18 -3 30 -15 52 -26 49 -11 -4 -26 14 -32 40 -11 39 -15 41 -27 12z"/>
<path d="M4980 1950 c0 -16 7 -30 16 -30 9 0 33 -38 53 -85 54 -126 75 -148
94 -97 16 42 -32 134 -109 211 -39 39 -54 39 -54 1z"/>
<path d="M4340 1882 c0 -21 18 -42 40 -48 22 -6 40 -2 40 8 0 10 10 18 21 18
12 0 16 -9 9 -20 -7 -11 -3 -20 9 -20 37 0 23 34 -28 68 -65 42 -91 41 -91 -6z"/>
<path d="M1422 1856 c14 -25 12 -36 -4 -36 -17 0 -17 -7 -1 -27 17 -19 15 -36
-7 -65 -51 -67 -23 -98 37 -39 21 22 25 48 13 101 -16 72 1 104 43 78 14 -9
18 -5 9 9 -25 41 -112 20 -90 -21z"/>
<path d="M1947 1835 c-34 -55 -23 -207 16 -210 43 -3 45 3 16 57 -11 21 -14
50 -6 63 24 39 28 92 8 104 -10 7 -25 0 -34 -14z"/>
<path d="M4457 1750 c11 -44 39 -68 45 -39 6 28 -21 89 -38 89 -12 0 -15 -21
-7 -50z"/>
<path d="M4680 1713 c0 -17 8 -36 18 -42 9 -6 24 -43 31 -83 7 -40 19 -66 26
-60 18 19 21 92 3 92 -9 0 -14 24 -12 54 3 38 -7 57 -31 62 -21 4 -35 -5 -35
-23z"/>
<path d="M2139 1658 c-24 -58 -20 -68 75 -205 125 -181 193 -200 298 -85 36
40 79 72 95 72 16 0 34 14 40 30 7 17 35 39 62 50 28 10 52 30 54 45 11 90 9
132 -7 122 -10 -6 -14 -24 -8 -40 6 -16 0 -27 -13 -25 -51 6 -75 -3 -75 -28 0
-15 -18 -46 -41 -70 -26 -28 -31 -44 -15 -44 18 -1 17 -6 -4 -20 -23 -14 -33
-8 -42 26 -12 42 -13 41 -36 -14 l-24 -59 -47 70 c-39 58 -249 237 -278 237
-4 0 -20 -28 -34 -62z"/>
<path d="M5349 1658 l-59 -61 57 -50 c70 -59 80 -53 51 30 -17 49 -16 71 3 94
48 58 5 48 -52 -13z"/>
<path d="M1970 1432 c-161 -170 -545 -253 -759 -164 -42 18 -92 32 -112 32
-20 0 -48 11 -63 25 -15 14 -40 28 -56 33 -17 4 -64 16 -106 27 -106 28 -110
10 -18 -83 43 -44 74 -85 68 -91 -10 -10 14 -14 136 -21 28 -2 60 4 73 14 26
20 54 -36 34 -69 -9 -14 -1 -17 25 -7 92 36 149 38 137 6 -9 -22 -2 -29 24
-24 21 4 37 8 37 10 0 9 89 26 156 30 41 2 80 10 87 16 6 6 23 7 37 1 14 -5
32 0 39 12 7 11 22 21 33 21 11 0 14 -10 7 -22 -8 -12 9 -7 38 12 28 18 59 28
69 22 10 -6 30 12 45 39 27 51 100 83 138 60 11 -7 21 -2 22 13 0 14 10 8 23
-14 12 -22 23 -41 24 -43 1 -2 35 -10 76 -17 l75 -14 -83 152 c-97 179 -81
176 -206 44z"/>
<path d="M5156 1501 c-44 -36 -44 -41 -18 -134 33 -116 50 -311 33 -378 -35
-141 -438 -271 -652 -211 -183 51 -185 51 -161 10 39 -67 122 -312 112 -328
-12 -19 49 -48 90 -42 24 3 24 0 4 -14 -20 -13 13 -55 127 -160 180 -166 304
-256 324 -235 8 9 -5 29 -30 46 -25 16 -45 42 -45 57 0 16 -11 28 -23 28 -13
0 -18 6 -10 13 7 7 -5 26 -27 41 -41 29 -58 79 -18 55 14 -9 13 3 -3 34 -35
68 -41 70 -34 18 6 -59 -36 -77 -51 -22 -7 28 -3 37 13 27 13 -7 10 2 -5 21
-16 19 -41 30 -56 24 -26 -10 -146 98 -146 130 0 7 20 23 45 35 25 12 34 22
20 23 -14 0 -25 9 -25 19 0 25 112 38 149 17 17 -9 31 -10 31 -1 0 27 112 68
148 54 25 -9 38 -1 46 31 7 26 22 39 39 33 36 -14 90 7 76 30 -15 23 4 23 48
0 27 -15 34 -11 34 18 0 20 -9 32 -20 26 -12 -7 -10 0 4 15 20 22 33 22 75 -1
27 -15 56 -21 63 -13 8 7 5 13 -5 13 -64 1 -72 38 -20 90 30 30 50 67 44 83
-8 20 2 25 34 19 34 -6 45 2 45 29 0 20 -6 32 -14 27 -8 -5 -20 0 -27 12 -7
11 4 20 24 21 35 0 35 1 0 28 -21 16 -28 32 -17 39 11 7 26 3 33 -9 9 -14 29
-11 62 10 36 24 48 25 48 6 1 -14 18 -3 39 24 32 42 42 45 70 22 27 -23 30
-22 19 6 -7 18 -2 33 10 33 12 0 22 -17 22 -38 0 -21 11 -42 25 -47 18 -6 16
-17 -7 -40 -23 -23 -39 -26 -54 -11 -21 21 -64 6 -64 -23 0 -9 18 -21 40 -27
38 -10 58 -74 23 -74 -9 0 -15 -27 -13 -61 2 -33 -4 -65 -13 -71 -9 -6 -17
-19 -17 -30 0 -11 9 -15 19 -8 11 6 26 -13 34 -43 8 -35 5 -58 -10 -63 -13 -4
-17 -18 -8 -31 16 -26 19 -37 23 -92 1 -22 19 -56 41 -75 21 -20 56 -77 77
-126 28 -65 61 -103 121 -136 131 -73 126 -15 -15 169 -239 313 -227 683 27
816 229 120 -103 179 -459 81 -224 -62 -259 -64 -231 -11 15 27 15 43 0 52
-36 22 21 69 83 69 77 0 72 19 -22 84 -77 53 -79 53 -124 17z"/>
<path d="M2712 1377 c-36 -52 -43 -106 -11 -86 25 15 64 110 52 123 -5 5 -23
-12 -41 -37z"/>
<path d="M4959 1368 c-22 -26 -22 -34 2 -49 32 -20 63 -17 61 7 -1 7 -2 28 -2
44 0 39 -28 38 -61 -2z"/>
<path d="M4902 1330 c-1 -11 -43 -37 -93 -57 -63 -26 -89 -48 -85 -70 9 -48
96 -48 96 0 0 24 14 37 40 37 22 0 40 -9 40 -19 0 -11 14 -15 30 -8 20 7 30
-1 30 -25 0 -33 2 -33 29 3 41 54 38 75 -9 63 -22 -6 -35 -2 -29 8 6 10 2 18
-8 18 -11 0 -24 16 -29 35 -5 19 -10 26 -12 15z"/>
<path d="M4445 1169 c-37 -27 -2 -59 65 -59 28 0 40 -13 39 -43 -1 -27 8 -39
23 -33 14 5 21 22 15 37 -12 30 70 24 92 -7 41 -60 234 -105 234 -55 0 16 -8
24 -18 18 -22 -14 -135 32 -135 55 0 10 -7 16 -16 13 -9 -3 -40 20 -68 51 -56
59 -166 70 -231 23z"/>
<path d="M4374 335 c7 -36 32 -123 56 -195 l44 -130 163 -6 c203 -7 209 14 43
145 -66 52 -135 122 -153 156 -27 53 -34 57 -50 28 -27 -47 -54 -41 -69 17
-18 74 -49 61 -34 -15z"/>
</g>
</svg>
